<svg xmlns="http://www.w3.org/2000/svg" width="156" height="200" viewBox="0 0 156 200" fill="none" role="img" aria-label="Connect" font-family="&#39;JetBrains Mono&#39;,ui-monospace,monospace">
  <defs>
    <linearGradient id="cnbg" x1="0" y1="0" x2="0" y2="1"><stop offset="0" stop-color="#241811"></stop><stop offset="1" stop-color="#17100A"></stop></linearGradient>
    <radialGradient id="cnglow" cx="0.5" cy="0.2" r="0.8"><stop offset="0" stop-color="#57C07A" stop-opacity="0.10"></stop><stop offset="1" stop-color="#57C07A" stop-opacity="0"></stop></radialGradient>
  </defs>
  <rect x="1" y="1" width="154" height="198" rx="16" fill="url(#cnbg)" stroke="#4A3722"></rect>
  <rect x="1" y="1" width="154" height="198" rx="16" fill="url(#cnglow)"></rect>

  <circle cx="20" cy="22" r="3" fill="#F2B25C">
    
  </circle>
  <text x="30" y="26" font-size="9.5" letter-spacing="1" fill="#F2B25C">CONNECT</text>

  
  <g transform="translate(18,52)">
    
    <g fill="none" stroke="#F4E8D2" stroke-width="1.4"><circle cx="9" cy="9" r="8"></circle><path d="M9 14 v-3 M6 14 c0 -2 -1 -3 -3 -3 M6 11 c-1.5 0 -2 -1 -2.5 -2" stroke-linecap="round"></path></g>
    <text x="28" y="13" font-size="11" fill="#BCA98C">GitHub</text>
  </g>
  
  <g transform="translate(18,96)">
    
    <g fill="none" stroke="#F2B25C" stroke-width="1.4"><rect x="1" y="3" width="16" height="12" rx="2"></rect><path d="M1.5 4 L9 10 L16.5 4"></path></g>
    <text x="28" y="13" font-size="11" fill="#BCA98C">Email</text>
  </g>
  
  <g transform="translate(18,140)">
    
    <g stroke="#F4E8D2" stroke-width="1.6" stroke-linecap="round"><path d="M2 2 L16 16 M16 2 L2 16"></path></g>
    <text x="28" y="13" font-size="11" fill="#BCA98C">@banuben</text>
  </g>

  
  <g transform="translate(18,178)">
    <circle cx="5" cy="5" r="4" fill="#57C07A" opacity="0.6">
      
      
    </circle>
    <circle cx="5" cy="5" r="4" fill="#57C07A">
      
    </circle>
    <text x="18" y="9" font-size="9" fill="#57C07A">open to collab</text>
  </g>
</svg>
